Patient4_TMGait_0pt5_01_left_41_EMG.mot
version=1
nRows=23
nColumns=33
inDegrees=no
endheader
time	1LAddLong	2LGlutMax	3LGlutMed	4LIliopsoas	5LSemiMemb	6LBicFemLong	7LRecFem	8LVastMed	9LVastLat	10LGasMed	11LTibAnt	12lTibPost	13LPeroneusLong	14LSol	15LExtDigLong	16LFlexDigLong	17RAddLong	18RGlutMax	19RGlutMed	20RIliopsoas	21RSemiMemb	22RBicFemLong	23RRecFem	24RVastMed	25RVastLat	26RGasMed	27RTibAnt	28RTibPost	29RPeroneusLong	30RSol	31RExtDigLong	32RFlexDigLong
54.63	0.010834	-0.11444	-0.077209	0.00412	-0.016327	0.022736	0.15137	0.012665	0.18982	0	0.038605	-0.005341	0.018005	-0.084534	-0.44006	-0.18082	0.005646	-0.21164	0.40726	-0.034943	-0.02594	-0.000916	-0.21316	0.38696	-0.27161	0.014191	0.42358	-0.009308	0.66681	-0.042267	-0.001373	0.001526
54.631	0.008087	-0.093842	-0.076294	0.003204	0.000153	0.02182	0.14801	0.007324	0.19821	-0.008392	0.020142	0.000916	0.022583	-0.035248	-0.33142	0.11231	-0.035706	-0.2034	0.57068	-0.10178	0.00061	0	-0.36697	0.24323	-0.53772	0.003967	0.40955	-0.010071	-0.080109	-0.11215	-0.004883	0.000305
54.632	-0.031891	-0.11643	-0.070038	-0.007935	-0.016022	0.014343	0.13672	0.002747	0.20172	0.004883	-0.062561	-0.005646	0.047913	-0.18127	-0.29953	-0.19028	-0.030975	-0.23575	0.69626	-0.10727	-0.000458	0.021362	-0.35599	0.22858	-0.13763	0.004272	-0.019684	-0.00946	-0.92773	-0.13794	-0.005188	-0.003052
54.633	-0.032349	-0.097198	-0.058441	-0.015564	-0.040436	-0.014191	0.14496	0.005493	0.20218	0.023041	-0.097198	-0.006409	0.09903	-0.38605	-0.17441	0.034027	-0.007477	-0.20386	0.30106	-0.037689	-0.010986	-0.02243	-0.31387	-0.025787	-0.16495	0.003662	-0.26367	-0.006104	-0.81207	-0.068512	-0.008392	-0.002594
54.634	-0.026398	-0.099182	-0.055237	0.012207	-0.011902	-0.035095	0.14893	0.009308	0.20294	-0.004272	-0.079346	0.003662	0.14771	-0.19409	-0.024109	0.21408	-0.00351	-0.20615	0.23773	-0.015106	-0.026855	-0.02655	-0.34393	-0.16663	-0.1828	-0.003052	-0.29175	-0.000458	-0.8255	-0.002289	-0.005188	-0.002136
54.635	-0.011902	-0.0914	-0.069122	0.001831	0.00351	-0.027008	0.1355	0.006409	0.19928	-0.011902	-0.02243	0.004578	0.14023	-0.087433	0.12451	0.040283	-0.010681	-0.22156	-0.10834	0.0177	-0.011902	-0.014648	-0.19684	-0.049744	-0.121	-0.010223	-0.46417	-0.010071	-0.41275	-0.019226	-0.002899	0.001221
54.636	0.000458	-0.066528	-0.076904	0.00412	0.023193	-0.022583	0.14252	0.012817	0.19287	-0.010529	0.051422	0.000458	0.10803	-0.15839	0.10803	-0.27512	0.022736	-0.18326	-0.047607	-0.042267	-0.031433	-0.021667	-0.040588	0.2092	-0.10239	-0.008698	-0.33844	-0.010681	-0.40832	-0.10346	-0.00824	0.00824
54.637	0.001068	-0.069122	-0.065918	0.008087	0.018005	-0.005035	0.13397	0	0.19302	-0.020752	0.15808	0.007629	0.054474	-0.1062	0.050964	0.092163	0.004578	-0.17899	0.23025	-0.045624	-0.016327	-0.02533	-0.39505	0.3067	0.058136	-0.007477	-0.070953	-0.002747	0.81329	-0.1915	-0.004272	-0.000763
54.638	-0.006561	-0.054779	-0.058746	0.004425	-0.019531	-0.028076	0.13199	-0.002441	0.18188	0.000763	0.14328	0.006866	0.016632	-0.004578	0.041809	-0.048065	-0.003662	-0.1442	0.41687	-0.037689	-0.014038	-0.012054	-0.23636	0.27268	0.11185	-0.00824	-0.079346	-0.007172	0.5159	-0.11337	-0.004578	0.004272
54.639	0.000916	-0.046082	-0.06485	0.002441	-0.014191	-0.007019	0.12573	0.000305	0.18097	-0.02243	0.16144	0.000763	0.013733	-0.00412	-0.018005	0.16525	0.024567	-0.19974	0.14496	0.006561	-0.026245	-0.029297	-0.075226	0.083008	0.036774	-0.001984	0.82962	-0.005035	0.70511	-0.12772	-0.00412	-0.009003
54.64	0.024109	-0.035553	-0.05722	-0.006561	-0.038605	-0.007324	0.10849	0.001831	0.15701	-0.082703	0.14267	-0.015717	0.020752	0.081024	0.022736	0.17883	0.015106	-0.18112	0.054932	-0.059662	-0.016479	-0.006256	-0.00412	-0.14267	0.19394	0.004578	0.79804	-0.001373	0.45319	-0.22079	-0.004272	-0.005798
54.641	0.010376	-0.023041	-0.058899	0.003662	-0.029144	-0.047302	0.11231	0.001221	0.15076	-0.098572	-0.09613	-0.005951	0.11047	0.036469	0.15472	0.037689	0.001526	-0.19547	-0.066528	-0.019989	-0.018005	-0.001984	0.058746	-0.25742	0.39307	-0.001526	0.36133	-0.001831	-0.26932	-0.18051	-0.004883	-0.007019
54.642	0.009766	-0.009613	-0.087891	0.002899	0.04715	-0.03891	0.086517	-0.001678	0.1358	-0.051117	-0.23804	-0.001678	0.14191	-0.018616	0.21484	0.020294	0.024261	-0.12817	0.1506	-0.05661	-0.0354	-0.040283	0.091858	-0.32089	0.41412	0	-0.49484	-0.003357	-0.53802	-0.10529	-0.00473	0
54.643	0.008392	-0.026398	-0.097504	0.005798	0.031738	-0.00412	0.075226	0.002136	0.1297	0.001526	-0.070038	-0.01297	0.042877	0.016022	0.12146	-0.006409	-0.00061	-0.12268	0.34546	0.010529	-0.020905	0.003052	-0.042419	-0.26535	0.298	0.002747	-1.1575	-0.001678	-0.11795	-0.11688	0.00061	0.000458
54.644	0.014191	0.000153	-0.099945	0.010223	0.00351	0.021515	0.067291	0.003967	0.12283	0.012207	0.006256	0.002899	0.024261	0.047302	0.12924	-0.004425	-0.001068	-0.09201	0.14923	0.12329	-0.018005	0.011902	-0.28717	-0.24643	0.24597	0.00473	-1.2933	-0.002136	0.73044	-0.19836	-0.002289	-0.006256
54.645	0.00412	0.011292	-0.094604	0.008392	-0.010834	0.0383	0.058746	-0.000916	0.11246	0.014038	0.011444	-0.014496	0.055237	0.02121	-0.023346	-0.024261	0.019836	-0.12848	-0.16403	0.15091	-0.015106	0.000763	-0.25146	-0.07843	0.12283	0.005035	-0.70313	0	0.89508	-0.18158	-0.000153	0
54.646	0.009155	0.030518	-0.058594	0.004883	0.000153	-0.032043	0.058746	-0.000916	0.096436	-0.002594	-0.018463	-0.005646	0.079193	-0.019531	-0.088806	-0.56244	-0.002747	-0.087891	-0.29358	0.051575	0.002441	0.011749	-0.22003	0.24002	0.021667	0.009918	0.37537	-0.003204	0.90454	-0.21729	-0.002136	0.003052
54.647	0.007935	0.052795	-0.031738	0.005188	0.006866	-0.04425	0.06424	0.002289	0.09613	-0.008392	-0.041962	0.00412	0.069885	-0.042725	-0.17502	0.33249	-0.006561	-0.063019	0.401	-0.054932	-0.002136	-0.000153	0.053864	0.38773	-0.33188	0.001678	0.93475	0.000916	0.39383	-0.1268	-0.002899	0.008545
54.648	0.01297	0.045319	-0.077209	0.002594	0.014954	0.001221	0.053253	0.003815	0.095215	-0.015259	-0.068665	0.000153	0.071869	-0.053864	-0.22751	0.17487	0.006866	0.020905	1.2254	-0.15991	0.009613	-0.012512	0.12482	0.22446	-0.64377	0.004425	0.3865	-0.000763	-0.33493	-0.030975	-0.002136	0.00061
54.649	0.009613	0.090942	-0.073395	0.002289	0.004425	0.010986	0.068512	-0.001831	0.091095	-0.009003	-0.076752	-0.003967	0.072632	-0.033417	-0.23254	0.095215	0.015411	0.035858	0.98938	-0.091553	-0.016022	-0.021515	0.26489	-0.005341	-0.32516	-0.001068	-0.39154	-0.009613	0.87997	0.061493	-0.004425	0.005493
54.65	0.011139	0.086975	-0.04715	0.006256	-0.000305	-0.001068	0.052795	-0.00473	0.10086	-0.000458	-0.045013	0.002289	0.044098	-0.045013	-0.094604	0.079041	0.023041	0.046692	0.30304	0.027161	-0.023651	-0.032654	0.38483	-0.18662	0.015106	0.007324	-0.50095	-0.003815	0.99915	-0.053864	-0.002747	0.012817
54.651	0.013428	0.094452	-0.072479	0.005951	-0.013275	-0.034637	0.062256	0.006256	0.093536	-0.00412	-0.009918	-0.001068	0.078735	-0.009155	0.011597	0.025177	0.005493	0.044708	-0.25192	0.052948	-0.022278	-0.012665	0.30319	-0.25406	0.085907	0.018616	-0.58685	-0.006561	-0.49118	-0.13809	-0.003967	0.011292
54.652	0.014191	0.12543	-0.058746	-0.005493	0.040283	-0.049133	0.058899	0.000916	0.093384	-0.021362	0.055237	0.000153	0.11185	0.007782	0.057678	0.028839	0.002136	0.051117	-0.36057	0.03418	-0.015106	0.008698	0.28473	-0.3363	-0.038757	0.003357	-0.28137	-0.002747	-0.52978	0.10635	-0.014648	0.007629
